<?xml version="1.0" encoding="utf-8"?>
<!-- Generator: Adobe Illustrator 24.1.1, SVG Export Plug-In . SVG Version: 6.00 Build 0)  -->
<svg version="1.1" id="Layer_1" xmlns="http://www.w3.org/2000/svg" xmlns:xlink="http://www.w3.org/1999/xlink" x="0px" y="0px"
	 viewBox="0 0 100 100" style="enable-background:new 0 0 100 100;" xml:space="preserve">
<style type="text/css">
	.st0{fill:#DA2128;}
</style>
<path class="st0" d="M15.32,5h21.76c5.7,0,10.32,4.62,10.32,10.32v21.76c0,5.7-4.62,10.32-10.32,10.32H15.32
	C9.62,47.4,5,42.78,5,37.08V15.32C5,9.62,9.62,5,15.32,5z"/>
<path class="st0" d="M62.82,5h21.76c5.7,0,10.32,4.62,10.32,10.32v21.76c0,5.7-4.62,10.32-10.32,10.32H62.82
	c-5.7,0-10.32-4.62-10.32-10.32V15.32C52.5,9.62,57.12,5,62.82,5z"/>
<path class="st0" d="M15.32,52.5h21.76c5.7,0,10.32,4.62,10.32,10.32v21.76c0,5.7-4.62,10.32-10.32,10.32H15.32
	C9.62,94.9,5,90.28,5,84.58V62.82C5,57.12,9.62,52.5,15.32,52.5z"/>
<path class="st0" d="M62.82,52.5h21.76c5.7,0,10.32,4.62,10.32,10.32v21.76c0,5.7-4.62,10.32-10.32,10.32H62.82
	c-5.7,0-10.32-4.62-10.32-10.32V62.82C52.5,57.12,57.12,52.5,62.82,52.5z"/>
</svg>
