<?xml version="1.0" encoding="utf-8"?>
<!-- Generator: Adobe Illustrator 24.1.1, SVG Export Plug-In . SVG Version: 6.00 Build 0)  -->
<svg version="1.1" id="Layer_1" xmlns="http://www.w3.org/2000/svg" xmlns:xlink="http://www.w3.org/1999/xlink" x="0px" y="0px"
	 viewBox="0 0 100 100" style="enable-background:new 0 0 100 100;" xml:space="preserve">
<style type="text/css">
	.st0{fill:#DA2128;}
</style>
<path class="st0" d="M18.9,5L18.9,5c7.68,0,13.91,6.23,13.91,13.9v0c0,7.68-6.23,13.9-13.9,13.9h0c-7.68,0-13.9-6.23-13.9-13.9v0
	C5,11.23,11.23,5,18.9,5z"/>
<path class="st0" d="M18.9,36.09L18.9,36.09c7.68,0,13.91,6.23,13.91,13.9v0c0,7.68-6.23,13.9-13.9,13.9h0C11.23,63.9,5,57.67,5,50
	v0C5,42.32,11.23,36.09,18.9,36.09z"/>
<path class="st0" d="M81.08,5h0.01C88.77,5,95,11.23,95,18.9v0c0,7.68-6.23,13.9-13.9,13.9h-0.01c-7.68,0-13.9-6.23-13.9-13.9v0
	C67.18,11.23,73.41,5,81.08,5z"/>
<path class="st0" d="M49.99,5L49.99,5c7.68,0,13.91,6.23,13.91,13.9v0c0,7.68-6.23,13.9-13.9,13.9h0c-7.68,0-13.9-6.23-13.9-13.9v0
	C36.09,11.23,42.32,5,49.99,5z"/>
<path class="st0" d="M49.99,36.09L49.99,36.09c7.68,0,13.91,6.23,13.91,13.9v0c0,7.68-6.23,13.9-13.9,13.9h0
	c-7.68,0-13.9-6.23-13.9-13.9v0C36.09,42.32,42.32,36.09,49.99,36.09z"/>
<path class="st0" d="M81.08,36.09h0.01c7.68,0,13.9,6.23,13.9,13.9v0c0,7.68-6.23,13.9-13.9,13.9h-0.01c-7.68,0-13.9-6.23-13.9-13.9
	v0C67.18,42.32,73.41,36.09,81.08,36.09z"/>
<path class="st0" d="M18.9,67.18L18.9,67.18c7.68,0,13.91,6.23,13.91,13.9v0.01c0,7.68-6.23,13.9-13.9,13.9h0
	C11.23,95,5,88.77,5,81.1v-0.01C5,73.41,11.23,67.18,18.9,67.18z"/>
<path class="st0" d="M49.99,67.18L49.99,67.18c7.68,0,13.91,6.23,13.91,13.9v0.01C63.9,88.77,57.67,95,50,95h0
	c-7.68,0-13.9-6.23-13.9-13.9v-0.01C36.09,73.41,42.32,67.18,49.99,67.18z"/>
<path class="st0" d="M81.08,67.18h0.01c7.68,0,13.9,6.23,13.9,13.9v0.01C95,88.77,88.77,95,81.1,95h-0.01
	c-7.68,0-13.9-6.23-13.9-13.9v-0.01C67.18,73.41,73.41,67.18,81.08,67.18z"/>
</svg>
