<?xml version="1.0" encoding="utf-8"?>
<!-- Generator: Adobe Illustrator 24.1.1, SVG Export Plug-In . SVG Version: 6.00 Build 0)  -->
<svg version="1.1" id="Layer_1" xmlns="http://www.w3.org/2000/svg" xmlns:xlink="http://www.w3.org/1999/xlink" x="0px" y="0px"
	 viewBox="0 0 80 80" style="enable-background:new 0 0 80 80;" xml:space="preserve">
<style type="text/css">
	.st0{fill:#DA2128;stroke:#DA2128;stroke-width:0.5;}
</style>
<g>
	<path class="st0" d="M53.5,54.9c0.3-0.6,0.4-1.3,0.4-2.1c0-0.2-1.3-15.2-0.8-21.2c0.2-5.3,2.1-15.9,2.6-18.7l0.3-0.1L55.6,11
		l-11.5,1.9v0.4C33.1,25,30,44.2,29.1,54.8C21.4,56,15,58.2,12.5,59.3c-0.8,0.2-1.5,1.3-1.5,2.1s0.6,1.7,1.5,2.1
		c3.3,1,15.3,5.2,27.4,5.2v0c14,0,24.3-3.5,24.7-3.8l0.6-0.2v-6.9l-0.6-0.2C64.4,57.5,60.3,56,53.5,54.9z M45.1,14.5l8.6-1.3
		c-0.2,1.4-0.6,3.6-1,6.2l-7.3,0.8l0.2,1.9l6.8-0.7c-0.4,2.5-0.7,5.1-1,7.4l-7.9,0.9l0.2,1.9l7.5-0.8c0,0.3,0,0.5-0.1,0.8
		c-0.1,1.7-0.1,4.1,0,6.7L40.9,39l0.2,1.9L51.2,40c0.1,2.5,0.3,5.1,0.4,7.3L39,48.1l0.1,1.9l12.6-0.8c0.1,2.1,0.3,3.5,0.3,3.7
		c0,1.7-1,3.1-2.7,3.3l-18.5,2.2C31.2,49.6,33.5,27.3,45.1,14.5z M63.3,63.3c-2.5,0.8-11.7,3.5-23.5,3.5s-23.5-4-26.8-5.2
		c0,0-0.2-0.2-0.2-0.4s0-0.4,0.2-0.4C15.4,60,21.6,58,29,56.7c-0.2,3.2-0.2,5.3-0.2,5.6l0,0l1.9-0.2c0,0,0-0.7,0-1.8
		c1.6-0.2,18.6-2.2,18.6-2.2c1.2-0.2,2.2-0.7,3-1.4c5.5,0.8,9.6,2.1,11.1,2.5V63.3z"/>
	<rect x="52" y="60.4" class="st0" width="1.9" height="1.9"/>
	<rect x="55" y="33.3" class="st0" width="10.3" height="1.9"/>
	<rect x="56.9" y="37.9" class="st0" width="6.5" height="1.9"/>
	<rect x="55.8" y="60.4" class="st0" width="1.9" height="1.9"/>
	<rect x="65.2" y="37.9" class="st0" width="1.9" height="1.9"/>
	<rect x="67.1" y="33.3" class="st0" width="1.9" height="1.9"/>
	<rect x="59.6" y="60.4" class="st0" width="1.9" height="1.9"/>
	<path class="st0" d="M35.3,52c0-0.6,0.2-1.3,0.2-1.9L33.6,50c0,0.6-0.2,1.2-0.2,1.9L35.3,52z"/>
	<path class="st0" d="M41.8,27.2l-1.7-0.8c-2.7,6.5-4.8,14.2-6.1,21.7l1.7,0.2C37,41,39.1,33.5,41.8,27.2z"/>
</g>
</svg>
