<?xml version="1.0" encoding="utf-8"?>
<!-- Generator: Adobe Illustrator 24.1.1, SVG Export Plug-In . SVG Version: 6.00 Build 0)  -->
<svg version="1.1" id="Layer_1" xmlns="http://www.w3.org/2000/svg" xmlns:xlink="http://www.w3.org/1999/xlink" x="0px" y="0px"
	 viewBox="0 0 80 80" style="enable-background:new 0 0 80 80;" xml:space="preserve">
<style type="text/css">
	.st0{clip-path:url(#SVGID_2_);fill:#DA2128;}
</style>
<g>
	<defs>
		<rect id="SVGID_1_" y="19" width="80" height="42.7"/>
	</defs>
	<clipPath id="SVGID_2_">
		<use xlink:href="#SVGID_1_"  style="overflow:visible;"/>
	</clipPath>
	<path class="st0" d="M6,44.6V48c0,1.6,1.1,2.7,2.7,2.7h0.4v8.8c0,2,2.9,2,2.9,0v-8.8h4v8.8c0,2,2.9,2,2.9,0v-8.8h0.5
		c1.6,0,2.7-1.1,2.7-2.7v-3.4h9.4V48c0,1.6,1.1,2.7,2.7,2.7h0.9v8.8c0,2,2.9,2,2.9,0v-8.8h4v8.8c0,2,2.9,2,2.9,0v-8.8h0.5
		c1.6,0,2.7-1.1,2.7-2.7v-3.4h9.4V48c0,1.6,1.1,2.7,2.7,2.7h0.5v8.8c0,2,2.9,2,2.9,0v-8.8h4v8.8c0,2,2.9,2,2.9,0v-8.8h0.4
		c1.6,0,2.7-1.1,2.7-2.7v-3.4h4.5c2,0,2-2.9,0-2.9h-5.6c-3.6-10.8-12.4-18.9-23.6-21.6c-10.3-2.7-21.8-0.7-30.3,5.8
		c-5.4,4-9.2,9.4-11.7,15.5H1.5c-2,0-2,2.9,0,2.9C3.1,44.6,4.4,44.6,6,44.6L6,44.6z M19.5,47.8H9.2v-2.9h10.3V47.8z M45.5,47.8H35
		v-2.9h10.6V47.8z M25.8,41.7h-5.4v-13c1.6-1.3,3.6-2.5,5.4-3.4C25.8,25.3,25.8,41.7,25.8,41.7z M59.5,41.7h-5.4V25.1
		c1.8,0.9,3.8,2,5.4,3.1L59.5,41.7L59.5,41.7z M71.4,47.8H60.8v-2.9h10.6L71.4,47.8L71.4,47.8z M70,41.7h-7.6v-11
		C65.8,33.9,68.2,37.5,70,41.7z M51.2,23.8v18h-5.4V22.4C47.6,22.6,49.4,23.1,51.2,23.8L51.2,23.8z M42.6,22.2v19.5h-5.4V22.2
		C39,22,40.8,22,42.6,22.2z M34.1,22.6v19.1h-5.4V24c1.1-0.4,2.2-0.7,3.4-1.1C32.7,22.9,33.4,22.6,34.1,22.6L34.1,22.6z M17.2,31.4
		v10.3h-6.7C12.1,37.9,14.3,34.3,17.2,31.4L17.2,31.4z"/>
</g>
</svg>
