<?xml version="1.0" encoding="utf-8"?>
<!-- Generator: Adobe Illustrator 24.1.1, SVG Export Plug-In . SVG Version: 6.00 Build 0)  -->
<svg version="1.1" id="Layer_1" xmlns="http://www.w3.org/2000/svg" xmlns:xlink="http://www.w3.org/1999/xlink" x="0px" y="0px"
	 viewBox="0 0 80 80" style="enable-background:new 0 0 80 80;" xml:space="preserve">
<style type="text/css">
	.st0{fill:#DA2128;}
</style>
<path class="st0" d="M69.1,67.1h9.6c1.8,0,1.8-2.5,0-2.5h-7v-43c0.6,0.2,1,0.2,1.4,0.4c1.6,0.4,2.3-2.1,0.8-2.5
	c-5.7-1.6-11.1-3.1-16.6-4.7C55.3,14.2,53,13,51,13c-1,0-1.9,0.6-2.7,1c-1.4,0.6-2.9,1.4-4.5,1.9c-2.7,1.2-5.5,2.3-8.2,3.7
	c-1.6,0.6-0.4,2.9,1.2,2.1c0.2-0.2,0.6-0.2,0.8-0.4v7.8L10.1,39.6c-1.4,0.6-2.7,1-4.1,1.6c-1.6,0.6-1,3.1,0.6,2.5
	c0.6-0.2,1.2-0.4,2-0.8v21.5H1.3c-1.8,0-1.8,2.5,0,2.5h26.1C41.3,67.1,55.3,67.1,69.1,67.1z M52.8,55.8c-0.2,0-0.4-0.2-0.4-0.4v-7.6
	c0-0.2,0.2-0.4,0.4-0.4h6.8v8.3C59.6,55.9,52.8,55.9,52.8,55.8z M62.1,47.7h7V56h-7L62.1,47.7L62.1,47.7z M52.8,39.6
	c-0.2,0-0.4-0.2-0.4-0.4v-7.6c0-0.2,0.2-0.4,0.4-0.4h6.8v8.3H52.8z M62.1,31.4h7v8.3h-7L62.1,31.4L62.1,31.4z M43.4,18.8
	c1.8-0.6,3.3-1.4,4.9-1.9c0.8-0.4,1.9-1.2,2.7-1.2c0.2,0,1,0.4,1.2,0.4c1.2,0.4,2.3,0.8,3.5,1C59.2,18,62.5,19,66,20
	c1,0.2,1.9,0.6,2.9,0.8v8H52.8c-1.6,0-2.9,1.4-2.9,2.9v7.6c0,1.6,1.4,2.9,2.9,2.9h16.4V45H52.8c-1.6,0-2.9,1.4-2.9,2.9v7.8
	c0,1.5,1.4,2.9,2.9,2.9h16.4v6H40.3V20.4C41.5,19.8,42.4,19.4,43.4,18.8z M35.2,32.8c0.8-0.4,1.6-0.6,2.5-1v32.6h-3.1V54.3
	c0-1.6-1.4-2.9-2.9-2.9H18.7c-1.6,0-2.9,1.4-2.9,2.9v10.3h-4.7V42.1C19.2,39,27.2,35.9,35.2,32.8z M18.5,64.4V54.3
	c0-0.2,0.2-0.4,0.4-0.4h12.9c0.2,0,0.4,0.2,0.4,0.4v10.3H18.5V64.4L18.5,64.4z"/>
<path class="st0" d="M25.1,47.7c2.3,0,4.3-1.9,4.3-4.3c0-2.3-2-4.3-4.3-4.3s-4.3,1.9-4.3,4.3C21,45.8,22.8,47.7,25.1,47.7L25.1,47.7
	z M25.1,41.9c0.8,0,1.6,0.8,1.6,1.6c0,0.8-0.8,1.6-1.6,1.6c-0.8,0-1.6-0.8-1.6-1.5C23.5,42.7,24.3,41.9,25.1,41.9z"/>
</svg>
