<?xml version="1.0" encoding="utf-8"?>
<!-- Generator: Adobe Illustrator 24.1.1, SVG Export Plug-In . SVG Version: 6.00 Build 0)  -->
<svg version="1.1" id="Layer_1" xmlns="http://www.w3.org/2000/svg" xmlns:xlink="http://www.w3.org/1999/xlink" x="0px" y="0px"
	 viewBox="0 0 80 80" style="enable-background:new 0 0 80 80;" xml:space="preserve">
<style type="text/css">
	.st0{fill:#DA2128;}
</style>
<path class="st0" d="M53.3,37.4h-7.2c-1.6,0-1.6,2.6,0,2.6h7.2C55,40,55,37.4,53.3,37.4z M53.3,43h-7.2c-1.6,0-1.6,2.6,0,2.6h7.2
	C55,45.6,55,43,53.3,43L53.3,43z M53.3,48.6h-7.2c-1.6,0-1.6,2.6,0,2.6h7.2C55,51.2,55,48.6,53.3,48.6z M53.3,54.5h-7.2
	c-1.6,0-1.6,2.6,0,2.6h7.2C55,57.1,55,54.5,53.3,54.5z M53.3,60.5h-7.2c-1.6,0-1.6,2.6,0,2.6h7.2C55,63,55,60.5,53.3,60.5z"/>
<path class="st0" d="M30.8,68.1H70c1.6,0,1.6-2.6,0-2.6H60V35.5c0-2.1-1.7-3.8-3.7-3.8H43.7v-9c0-1.4-0.9-2.7-2.3-3.2l-19.7-6.4
	h-0.2c-0.9-0.2-1.9,0-2.7,0.6c-0.8,0.6-1.2,1.6-1.2,2.6v49.6H9.6c-1.6,0-1.6,2.6,0,2.6C16.7,68.1,23.8,68.1,30.8,68.1L30.8,68.1z
	 M43.7,34.2h12.5c0.6,0,1.2,0.5,1.2,1.3v30.1H43.7V34.2z M20.3,27h14.4v1.1H20.3C20.3,28.1,20.3,27,20.3,27z M20.3,36.9h14.4v1.1
	H20.3C20.3,38.1,20.3,36.9,20.3,36.9z M20.3,47h14.4v1.1H20.3C20.3,48.1,20.3,47,20.3,47z M20.3,57.1h14.4v1.1H20.3
	C20.3,58.2,20.3,57.1,20.3,57.1z M20.3,65.4v-4.6h14.4c1.4,0,2.5-1.1,2.5-2.6v-1.3c0-1.4-1.1-2.6-2.5-2.6H20.3v-3.5h14.4
	c1.4,0,2.5-1.1,2.5-2.6V47c0-1.4-1.1-2.6-2.5-2.6H20.3v-3.7h14.4c1.4,0,2.5-1.1,2.5-2.6v-1.3c0-1.4-1.1-2.6-2.5-2.6H20.3v-3.7h14.4
	c1.4,0,2.5-1.1,2.5-2.6v-1.3c0-1.4-1.1-2.6-2.5-2.6H20.3v-8.2c0-0.3,0.2-0.5,0.3-0.5s0.3-0.2,0.5-0.2l19.7,6.6h0.2
	c0.3,0,0.5,0.3,0.5,0.6v42.7C41.4,65.4,20.3,65.4,20.3,65.4z"/>
</svg>
