<?xml version="1.0" encoding="utf-8"?>
<!-- Generator: Adobe Illustrator 24.1.1, SVG Export Plug-In . SVG Version: 6.00 Build 0)  -->
<svg version="1.1" id="Layer_1" xmlns="http://www.w3.org/2000/svg" xmlns:xlink="http://www.w3.org/1999/xlink" x="0px" y="0px"
	 viewBox="0 0 50 50" style="enable-background:new 0 0 50 50;" xml:space="preserve">
<style type="text/css">
	.st0{fill:#4F5959;}
</style>
<g>
	<path class="st0" d="M25.8,5.4c-0.5,0.4-1,0.8-1.5,1.1c-0.9,0.7-1.8,1.5-2.5,2.4l-0.6,0.8c-0.1,0.2-0.3,0.3-0.4,0.5
		c0,0.1-0.1,0.2-0.1,0.3c-0.1,0.1-0.1,0.3-0.2,0.4c-0.1,0.3-0.2,0.6-0.2,0.8l-0.1,0.7c0,0.2,0,0.4,0,0.6c0.1,1.1,0.3,2.1,0.6,3.1
		c0.5,1.1,1,2.1,1.6,3.1l3,3.3c0.8-1,1.6-1.9,2.4-2.9l0.8-1.3c0.5-0.9,1-1.9,1.2-2.9l0.1-1.1c0.1-0.5,0-1-0.1-1.5
		c0-0.2-0.1-0.4-0.1-0.6l-0.3-0.8c-0.2-0.6-0.5-1.2-0.8-1.7c-0.4-0.6-0.8-1.3-1.2-2c-0.1-0.1-0.2-0.2-0.2-0.4L25.8,5.4"/>
	<path class="st0" d="M10.9,12.5c-0.5-0.1-1-0.3-1.4-0.4c-0.2,0-0.4-0.1-0.6-0.1c0,0.1,0,0.2,0,0.3L9,13.5c0,0.2,0,0.4,0.1,0.5
		l0.1,0.6c0.2,1.8,0.8,3.5,1.8,5.1c0.8,1.1,1.8,2.1,2.9,2.9c1.2,0.6,2.4,1.1,3.7,1.3c1.6-0.1,3.3-0.3,4.9-0.8c0-0.1,0-0.2,0-0.3
		l-0.2-1.1c-0.4-1.5-1-3-2-4.3l-1-1.1c-0.7-0.9-1.6-1.6-2.6-2.2L16.1,14c-0.4-0.2-0.8-0.4-1.2-0.5c-0.9-0.3-1.9-0.5-2.9-0.6
		c-0.1,0-0.3-0.1-0.4-0.1C11.4,12.6,11.1,12.6,10.9,12.5"/>
	<path class="st0" d="M37.7,13.8c-1.1-0.2-2.2-0.1-3.2,0.2c-0.4,0.2-0.8,0.4-1.2,0.6c-0.9,0.6-1.8,1.4-2.6,2.2c0,0-0.1,0.1-0.1,0.1
		c-0.3,0.5-0.6,0.9-0.8,1.5c-0.2,0.5-0.4,1-0.7,1.4l-0.2,0.5c-0.1,0.3-0.2,0.5-0.3,0.8L28,23.5c0.2,0,0.4,0.1,0.5,0.1l2,0.3
		c0.4,0.1,0.8,0.1,1.3,0.1c1.8-0.1,3.6-0.5,5.2-1.4c0.1,0,0.2-0.1,0.3-0.1c0.8-0.4,1.6-0.9,2.3-1.4c1-0.6,1.8-1.5,2.4-2.4
		c0.2-0.3,0.4-0.6,0.5-0.9c0.3-0.8,0.5-1.5,0.6-2.4l-2.5-0.9c-0.1,0-0.2-0.1-0.3-0.1C39.4,14.1,38.5,14,37.7,13.8"/>
	<path class="st0" d="M15.7,32.3c0.6-0.2,1.1-0.6,1.5-1l1-1c0.7-0.8,1.4-1.6,2-2.5c0.3-0.4,0.6-0.9,0.9-1.3
		c-1.3-0.6-2.7-1.1-4.1-1.6c-0.9-0.2-1.7-0.5-2.6-0.6c-0.3-0.1-0.7-0.1-1-0.1l-1.7-0.1c-0.5,0-0.9,0-1.4,0.2
		c-1.9,0.5-3.8,1.5-5.4,2.7l-0.8,0.6c0.7,1,1.4,2,2.2,2.9c0.1,0.1,0.1,0.1,0.2,0.2c0.1,0.1,0.2,0.2,0.3,0.3L7.6,32
		c0.4,0.2,0.7,0.3,1.1,0.5c0.7,0.4,1.5,0.6,2.3,0.7l0.6,0.1c1.2-0.1,2.4-0.3,3.5-0.6C15.2,32.6,15.5,32.5,15.7,32.3"/>
	<path class="st0" d="M36.5,24.3c-0.2,0-0.4,0-0.5,0c-0.4,0-0.8,0.1-1.2,0.2c-0.6,0.2-1.1,0.4-1.7,0.6c-1.3,0.5-2.6,1.2-3.7,2.1
		l0.5,0.9c0.3,0.5,0.6,1.1,1,1.6c0.4,0.5,0.8,0.9,1.2,1.2l0.3,0.2c0.2,0.1,0.4,0.3,0.6,0.4l0.3,0.2c0.1,0.1,0.3,0.1,0.4,0.2l1.2,0.5
		l0.2,0.1c0.5,0.2,1,0.3,1.4,0.3c0.6,0.1,1.2,0.1,1.7,0.1c0.1,0,0.2,0,0.3,0c0.2,0,0.3,0,0.5,0c0.4,0,0.7,0,1.1-0.1
		c0.6,0,1.2-0.1,1.7-0.2c0.8-0.1,1.7-0.3,2.5-0.5c0.3-0.1,0.7-0.2,1-0.3l0.2-0.1c0.2,0,0.4-0.1,0.5-0.2c0,0,0-0.1,0-0.1
		c-0.4-1-0.9-2.1-1.4-3L44.4,28c-0.1-0.1-0.2-0.3-0.3-0.4c-0.3-0.4-0.6-0.8-1-1.1l-0.7-0.5c-0.2-0.1-0.4-0.3-0.6-0.4
		c-1.3-0.6-2.6-1-4-1.2l-0.3,0C37.3,24.3,36.9,24.3,36.5,24.3"/>
	<path class="st0" d="M34.2,34c-0.5-0.6-1.1-1.1-1.7-1.5c-1.8-1.2-3.8-2.2-5.9-2.9L26.6,30c-0.5,1.3-0.8,2.7-0.9,4.1
		c0,0.3,0,0.6,0,0.9c0,0.1,0,0.1,0,0.2c0,0.6,0.1,1.3,0.3,1.9c0.1,0.2,0.2,0.5,0.3,0.7c0.3,0.5,0.6,0.9,0.9,1.3
		c0.1,0.1,0.2,0.3,0.3,0.4c0.5,0.5,1,1,1.6,1.4c1,0.7,2.1,1.3,3.3,1.9l0.6,0.2l2.5,0.9c0.5,0.2,0.9,0.3,1.4,0.5l0.1-2.8
		c0-0.6-0.1-1.2-0.2-1.8c0-0.5-0.1-1.1-0.2-1.7c-0.1-0.8-0.4-1.5-0.8-2.1C35.2,35.3,34.7,34.7,34.2,34"/>
	<path class="st0" d="M23.4,29.7c-1.9,0.7-3.7,1.5-5.4,2.4L17,32.7c-0.6,0.6-1.1,1.1-1.7,1.7c-0.6,0.5-1,1.2-1.3,2
		c-0.1,0.3-0.1,0.6-0.1,0.8c-0.1,1,0,2.1,0.2,3.1c0.2,1.1,0.5,2.2,0.9,3.3l0.3,1c0.1,0,0.1,0,0.2,0c0.1,0,0.1,0,0.2,0
		c1.3-0.4,2.6-1,3.9-1.5c0.1-0.1,0.2-0.1,0.3-0.2c0.9-0.5,1.6-1,2.3-1.7c0.2-0.2,0.3-0.4,0.5-0.5c0.1-0.1,0.1-0.1,0.2-0.2l0.2-0.2
		c1-1.3,1.5-3,1.6-4.6c0-0.3,0-0.5,0-0.8c-0.1-0.5-0.1-1-0.2-1.5l0-0.3c-0.1-0.3-0.1-0.5-0.2-0.8c0-0.1,0-0.2-0.1-0.3
		c-0.2-0.7-0.4-1.4-0.6-2.1L23.4,29.7"/>
</g>
</svg>
